<svg width="391" height="119" xmlns="http://www.w3.org/2000/svg" fill="none">

 <g>
  <title>Layer 1</title>
  <path id="svg_9" fill="#FE9F43" d="m7.1828,48.9794c1.56065,-14.6146 13.8921,-25.6993 28.5898,-25.6993l33.2439,0c14.6639,0 26.9749,11.0424 28.5634,25.62l1.294,11.8753c3.0141,27.6604 -18.6511,51.8146 -46.4753,51.8146c-27.7839,0 -49.43634,-24.0876 -46.48615,-51.7145l1.27035,-11.8961z"/>
  <path id="svg_10" fill="#092C4C" d="m3.79112,82.2694c1.74455,-16.465 15.63268,-28.9593 32.18978,-28.9593l33.0595,0c16.5953,0 30.5025,12.5503 32.2006,29.0586c1.962,19.0863 -13.0135,35.6813 -32.2006,35.6813l-33.0594,0c-19.227,0 -34.21572,-16.661 -32.18988,-35.7806z"/>
  <path id="svg_11" stroke-linecap="round" stroke-width="6" stroke="#092C4C" d="m74.2949,29.52l0,-4.29c0,-12.2773 -9.9527,-22.23001 -22.23,-22.23001c-12.2773,0 -22.23,9.95271 -22.23,22.23001l0,4.29"/>
  <path id="svg_12" fill="white" d="m41.9414,85.8238l0,26.4532l26.8515,0c7.3814,0 13.702,-2.563 18.9618,-7.69c5.304,-5.1717 7.956,-11.426 7.956,-18.7632c0,-7.3372 -2.652,-13.5915 -7.956,-18.7629c-5.304,-5.2156 -11.6246,-7.8234 -18.9618,-7.8234c-7.3372,0 -13.6578,2.6078 -18.9618,7.8234c-5.2598,5.1714 -7.8897,11.4257 -7.8897,18.7629zm11.2047,15.9122l0,-15.9122c0,-4.3758 1.5028,-8.1328 4.5084,-11.271c3.0498,-3.1824 6.7626,-4.7736 11.1384,-4.7736c4.3758,0 8.0665,1.5912 11.0721,4.7736c3.0498,3.1382 4.5747,6.8952 4.5747,11.271c0,4.3758 -1.5249,8.1328 -4.5747,11.271c-3.0056,3.0942 -6.6963,4.6412 -11.0721,4.6412l-15.6468,0z"/>
  <path id="svg_13" stroke-linecap="round" stroke-width="6" stroke="white" d="m77.3684,31.4753l-5.8034,0"/>
  <path id="svg_14" stroke-linecap="round" stroke-width="6" stroke="white" d="m32.9084,31.4753l-5.8034,0"/>
  <text font-weight="bold" xml:space="preserve" text-anchor="start" font-family="Noto Sans JP" font-size="60" id="svg_15" y="89" x="114.5" stroke-width="0" stroke="#000" fill="#092c4c">求实查档</text>
 </g>
</svg>